<svg width="573" height="573" viewBox="0 0 573 573" fill="none" xmlns="http://www.w3.org/2000/svg">
<path d="M370.244 430.037C365.468 428.345 360.575 427.004 355.604 426.026L355.002 428.232C354.935 428.492 354.776 428.719 354.555 428.871C354.334 429.024 354.066 429.092 353.799 429.062L334.116 426.771C328.702 414.422 318.76 395.714 318.617 395.427C318.76 390.757 318.617 386.832 318.617 382.363C329.876 386.546 350.705 394.482 361.592 399.553C361.838 399.712 362.028 399.943 362.136 400.216C362.244 400.488 362.264 400.787 362.193 401.071C362.193 401.071 361.993 401.788 361.735 402.819C367.064 402.819 383.022 402.046 386.861 405.684C387.458 406.516 387.751 407.527 387.692 408.549C387.921 412.503 385.944 443.216 382.793 452.24C381.16 456.968 377.722 456.452 375.372 451.925C372.653 445.108 370.908 437.942 370.187 430.638C370.187 430.266 370.273 430.294 370.244 430.037ZM373.539 404.395C370.044 404.108 368.955 404.166 361.449 403.936C360.102 409.036 357.323 419.522 355.89 424.88C360.945 425.663 365.935 426.821 370.817 428.346C372.339 420.444 373.248 412.437 373.539 404.395Z" fill="#002E62"/>
<path d="M106.55 153.65C105.833 152.647 106.75 151.358 107.524 150.355C105.333 148.101 102.902 146.093 100.275 144.367C95.8426 142.158 91.7903 139.257 88.2708 135.772C86.8097 134.254 84.0593 131.131 85.0907 129.297C86.1221 127.464 87.9557 127.349 90.4483 128.409C89.3683 127.275 88.487 125.968 87.8411 124.541C87.0389 122.307 88.9298 120.502 93.0268 122.163C91.537 119.785 91.1932 117.293 93.7144 116.09C95.7485 115.115 98.7281 117.436 100.447 118.955C103.823 121.904 106.991 125.082 109.93 128.466C111.735 124.685 114.6 120.33 118.181 121.705C121.763 123.08 118.984 129.24 117.15 132.592L123.654 137.09C124.637 136.559 125.747 136.311 126.862 136.374C134.254 137.634 168.204 163.477 171.642 163.477C174.278 163.477 211.924 145.427 244.471 140.213C244.534 140.018 244.65 139.844 244.807 139.712C244.964 139.581 245.156 139.496 245.359 139.468C251.036 138.499 256.791 138.068 262.549 138.179C262.723 138.19 262.893 138.24 263.047 138.324C263.2 138.408 263.333 138.525 263.437 138.666H265.844C266.417 136.345 268.537 130.988 269.282 128.925C267.333 127.234 264.64 126.375 263.236 123.653C260.658 118.611 260.772 109.844 261.489 104.228C258.251 101.765 258.165 97.8109 258.91 93.7712C259.197 92.1382 260.085 88.4423 261.46 87.5255C262.234 87.0098 263.867 87.5255 265.271 88.0412C266.674 84.7751 266.674 86.2649 266.101 84.947C265.835 84.3396 265.68 83.6895 265.643 83.0275C264.125 83.4859 260.973 80.449 262.062 76.438C262.632 75.0021 263.332 73.6212 264.153 72.3124C263.752 71.3383 262.893 70.1636 265.586 66.5824C266.746 65.3312 268.252 64.4536 269.912 64.0612H271.23C272.18 62.681 273.576 61.6695 275.183 61.1962C277.61 60.5774 280.183 60.9376 282.346 62.1989C282.919 62.6287 283.377 63.2017 283.95 63.6028C285.246 62.8161 286.732 62.4001 288.248 62.4001C289.763 62.4001 291.25 62.8161 292.545 63.6028C293.304 63.9003 293.994 64.3481 294.575 64.9192C295.156 65.4903 295.616 66.173 295.926 66.9262C297.33 66.4418 298.819 66.2553 300.299 66.3787C301.779 66.502 303.217 66.9324 304.521 67.6424C309.47 70.3262 313.172 74.8407 314.835 80.2198C314.881 81.0308 314.881 81.8439 314.835 82.655H315.15C319.448 82.0247 324.92 92.2241 320.536 100.16C320.021 101.106 319.362 101.994 318.731 103.025C316.898 105.89 317.614 106.75 313.517 110.245C312.314 111.276 312.113 111.19 311.368 111.821C310.623 112.451 310.91 112.136 310.48 113.74C310.246 114.685 309.827 115.575 309.246 116.357C308.666 117.139 307.936 117.798 307.1 118.296C306.795 121.098 305.6 123.729 303.69 125.802C303.085 126.479 302.38 127.059 301.599 127.521C301.388 127.64 301.153 127.708 300.911 127.721C300.052 133.05 298.992 139.984 298.533 142.935L301.083 144.31C304.419 145.652 307.664 147.212 310.795 148.98C311.041 149.15 311.215 149.405 311.282 149.696C314.319 151.3 317.184 152.819 318.817 153.793C341.565 167.287 406.171 256.245 406.83 260.314C406.903 260.547 406.903 260.797 406.83 261.03C405.904 262.507 404.776 263.848 403.478 265.012C403.878 265.742 404.359 266.424 404.911 267.046C410.641 270.8 419.236 276.386 423.848 281.371C424.172 281.66 424.415 282.028 424.552 282.438C424.69 282.849 424.719 283.289 424.635 283.714C424.551 284.14 424.358 284.536 424.074 284.863C423.79 285.191 423.426 285.439 423.017 285.583C422.158 285.869 422.015 285.784 416.428 282.718C417.963 284.065 419.219 285.7 420.124 287.531C420.496 289.107 419.064 290.024 417.259 289.737C416.243 289.471 415.276 289.045 414.394 288.477C414.911 289.274 415.185 290.205 415.185 291.155C415.185 292.106 414.911 293.036 414.394 293.834C411.529 297.444 404.023 286.07 400.069 283.262C398.464 285.296 396.287 290.052 392.82 288.792C389.812 287.674 393.107 281.056 392.82 279.137C391.655 278.017 390.41 276.983 389.096 276.042C386.886 277.682 384.359 278.843 381.676 279.452C376.948 279.452 327.613 229.658 323.86 225.676C325.206 238.339 331.996 292.688 330.564 303.26C329.905 308.045 318.416 308.732 313.574 308.99C315.036 343.37 316.01 395.456 316.268 396C323.86 412.359 325.923 416.829 328.472 421.785C333.114 430.667 352.653 463.442 354.859 470.891C355.174 472.066 355.203 472.524 353.971 474.702C357.663 478.583 361.09 482.708 364.228 487.05C365.803 489.915 359.042 516.617 354.257 526.071C353.169 528.191 351.392 531.457 349.015 531.371C341.852 531.113 341.881 505.386 342.081 498.195C342.082 497.973 342.164 497.759 342.31 497.593C341.012 495.655 339.596 493.799 338.07 492.035C337.159 492.662 336.202 493.217 335.205 493.697C334.231 494.126 333.142 493.381 332.34 492.722C322.8 485.216 271.344 421.097 260.314 390.843C255.3 377.034 248.625 357.953 246.734 344.43C245.578 335.88 245.472 327.221 246.419 318.645C246.419 318.523 246.371 318.407 246.285 318.321C246.199 318.235 246.082 318.187 245.96 318.187C245.839 318.187 245.722 318.235 245.636 318.321C245.55 318.407 245.502 318.523 245.502 318.645C244.067 327.27 243.788 336.047 244.671 344.745C246.791 363.511 261.603 402.618 269.511 417.001C262.692 415.74 248.825 412.989 242.121 410.984C219.774 404.194 199.146 383.938 197.341 361.19C196.757 350.474 196.757 339.733 197.341 329.016C197.535 314.222 199.458 299.501 203.071 285.153C196.998 281.858 191.439 277.991 189.635 274.438C185.767 266.846 195.995 223.155 198.23 210.892C185.996 212.239 165.167 214.674 155.455 207.082C144.339 198.143 120.33 172.988 106.55 153.65ZM343.628 496.619C348.785 493.496 356.005 486.076 357.094 480.26C355.919 478.77 354.687 477.395 353.541 475.848C349.659 481.773 344.817 487.011 339.216 491.347C340.79 493.016 342.263 494.776 343.628 496.619ZM115.861 133.394C115.713 133.3 115.606 133.152 115.564 132.981C115.521 132.811 115.545 132.631 115.632 132.477C116.634 130.615 119.643 124.054 117.551 123.309C116.348 122.851 115.288 123.596 114.4 124.599C113.043 126.319 111.988 128.256 111.277 130.329C111.224 130.497 111.126 130.648 110.994 130.765C110.861 130.882 110.7 130.961 110.526 130.994C110.353 131.026 110.173 131.011 110.008 130.949C109.842 130.887 109.697 130.782 109.586 130.644C106.721 127.464 100.017 120.215 96.2355 118.267C93.3705 116.777 92.683 119.528 99.7022 125.945C101.314 127.174 102.864 128.484 104.343 129.87C104.425 129.983 104.469 130.118 104.469 130.257C104.469 130.396 104.425 130.531 104.343 130.644C104.343 131.389 103.742 132.22 102.71 131.446C100.22 129.26 97.588 127.24 94.8317 125.401C93.4248 124.401 91.7896 123.771 90.0758 123.567C90.9353 126.203 98.9286 133.366 99.6163 134.168C99.8343 134.363 99.9669 134.636 99.9854 134.929C100.004 135.221 99.9072 135.509 99.7157 135.73C99.5242 135.952 99.2533 136.089 98.9615 136.113C98.6696 136.137 98.3801 136.046 98.1551 135.858C94.9749 133.795 89.4168 128.982 87.4973 129.698C85.5777 130.415 91.2791 135.743 92.7116 137.004C100.934 144.138 98.814 139.554 108.326 149.238C112.466 144.702 117.22 140.768 122.45 137.548L115.861 133.394ZM240.345 270.427C240.832 266.473 241.434 262.205 242.179 257.764L240.947 256.131C235.217 248.768 233.498 237.05 234.042 227.853C230.977 241.29 228.541 254.498 226.679 267.619L240.345 270.427ZM282.948 172.33C290.483 166.6 302.602 156.715 309.649 149.954L298.189 144.224C287.666 154.053 278.658 165.388 271.459 177.859C260.451 198.081 252.285 219.725 247.192 242.178L288.047 184.391L282.718 173.332C282.648 173.162 282.632 172.974 282.673 172.794C282.714 172.615 282.81 172.452 282.948 172.33ZM263.58 139.84C263.408 140.156 261.431 144.367 258.423 151.73C258.423 152.045 258.968 159.208 259.225 161.729C262.882 160.28 266.331 158.353 269.482 155.999C268.852 153.506 266.015 142.19 265.815 139.64L263.58 139.84ZM273.751 170.61C273.55 170.095 273.35 169.407 273.121 168.605L271.201 169.608C270.112 170.324 270.542 168.147 269.568 174.45C269.568 175.51 269.282 176.684 269.224 177.974C270.542 175.596 272.175 173.046 273.722 170.61H273.751ZM275.355 168.204C280.768 160.527 286.929 153.406 293.749 146.946L272.175 156.314C273.006 158.291 274.209 164.336 275.327 168.204H275.355ZM253.323 184.993C256.188 177.171 258.395 168.433 259.483 166.141C259.419 165.426 259.419 164.707 259.483 163.992C259.069 164.147 258.635 164.243 258.194 164.279C257.918 164.282 257.649 164.185 257.439 164.006C257.228 163.827 257.089 163.578 257.048 163.305C256.819 162.359 256.446 157.575 256.389 156.515C248.055 177.557 241.097 199.118 235.561 221.063C251.748 186.626 249.255 196.596 253.295 184.993H253.323ZM229.63 239.686C236.162 208.371 247.651 169.321 260.715 140.385C255.917 140.387 251.127 140.771 246.39 141.531C243.955 163.305 245.989 162.56 244.356 163.419C242.723 164.279 232.896 168.233 231.435 168.834C231.578 171.04 229.515 234.128 229.601 239.686H229.63ZM262.606 89.3591C261.113 92.6184 260.586 96.2378 261.088 99.7877C261.321 100.691 261.8 101.512 262.472 102.159C263.145 102.807 263.983 103.255 264.895 103.454C265.806 103.653 266.755 103.595 267.636 103.286C268.517 102.978 269.295 102.431 269.883 101.707C271.25 98.8275 272.279 95.7991 272.949 92.6825C272.175 91.6797 263.924 89.6743 262.606 89.3591ZM302.028 118.009C303.075 117.533 304.146 117.112 305.237 116.749C305.97 116.448 306.623 115.983 307.148 115.39C307.673 114.797 308.055 114.092 308.266 113.329C308.476 112.566 308.508 111.764 308.361 110.986C308.213 110.208 307.89 109.475 307.415 108.841C305.61 107.323 303.977 107.409 302.487 109.672C301.541 111.42 301.57 111.563 301.14 111.735C301.017 111.789 300.884 111.816 300.749 111.815C300.614 111.814 300.481 111.783 300.359 111.726C300.237 111.669 300.129 111.587 300.041 111.485C299.953 111.382 299.889 111.262 299.851 111.133C299.426 109.34 299.358 107.481 299.651 105.661C299.994 103.684 300.052 94.9172 299.994 94.6307C299.158 95.0718 298.217 95.2796 297.273 95.2324C292.087 95.0318 291.056 92.3674 288.993 90.19C286.615 90.4192 286.128 91.5652 283.435 90.19C282.174 89.4726 281.017 88.5858 279.997 87.5542C279.173 87.8913 278.378 88.2937 277.619 88.7575C275.902 89.5832 273.965 89.8368 272.093 89.481C270.222 89.1252 268.513 88.1787 267.219 86.7806C266.904 87.3823 266.617 87.9839 266.359 88.6142C268.992 89.4311 271.471 90.6801 273.694 92.3101C274.181 92.9117 273.464 96.1778 273.293 96.9514C275.693 97.2533 278.015 98.0015 280.14 99.1574C280.57 97.6676 281.515 94.8885 283.005 94.115C283.453 93.9778 283.932 93.9778 284.38 94.115C286.959 94.5161 296.213 97.2952 297.33 98.8136C298.304 99.8737 295.525 108.068 294.665 109.414C291.371 114.514 281.716 113.024 279.911 107.065C279.464 105.065 279.464 102.991 279.911 100.991C279.08 100.991 276.587 100.103 276.301 100.017C274.324 104.458 273.751 104.716 271.459 109.5C271.774 109.758 272.29 110.188 272.72 110.474C274.754 111.821 275.183 111.592 275.069 112.165C275.035 112.278 274.962 112.376 274.862 112.439C274.761 112.502 274.642 112.527 274.524 112.508C273.322 112.336 272.147 112.009 271.029 111.534C270.36 111.285 269.808 110.794 269.482 110.159C268.68 108.354 273.121 101.564 274.868 99.5299C274.525 99.5299 273.722 98.9569 273.121 98.6417C272.318 101.851 271.774 104.372 268.68 105.632C267.786 105.97 266.833 106.124 265.877 106.084C264.922 106.045 263.985 105.813 263.122 105.403C262.663 110.446 262.749 118.639 265.156 123.109C266.388 125.429 269.425 126.318 271.373 128.237C271.946 128.782 271.574 129.555 271.373 130.386C268.193 139.239 268.136 139.21 268.307 140.356C269.151 145.113 270.328 149.804 271.831 154.395C272.548 154.079 280.598 149.811 296.356 143.68C296.843 140.442 299.45 123.166 300.281 119.986C300.224 118.869 300.367 118.611 302.028 117.866V118.009ZM281.973 106.32C282.89 109.443 287.216 110.789 290.311 109.93C293.405 109.07 293.605 107.495 295.067 103.77C295.751 102.347 296.224 100.832 296.47 99.272C295.525 98.2406 285.182 96.1205 283.893 95.92C282.085 99.0134 281.406 102.639 281.973 106.177V106.32ZM394.081 278.335C395.17 279.395 393.709 282.861 393.479 285.869C393.479 286.127 393.479 287.245 393.651 287.331C395.227 287.846 396.688 285.468 397.576 284.036C398.464 282.603 399.353 280.655 400.756 281.171C403.621 282.517 410.268 291.342 412.875 292.258C414.193 289.737 406.658 282.546 406.4 282.145C406.29 281.961 406.232 281.75 406.233 281.535C406.234 281.32 406.294 281.11 406.406 280.927C406.518 280.743 406.679 280.595 406.87 280.496C407.061 280.398 407.275 280.354 407.489 280.369C408.005 280.369 408.349 280.827 409.151 281.543C411.591 283.925 414.384 285.915 417.431 287.445C414.668 284.276 411.711 281.281 408.578 278.478C408.423 278.319 408.314 278.121 408.263 277.905C408.263 277.905 408.864 276.386 410.039 276.988C411.701 277.905 419.78 282.575 422.33 283.778C422.674 283.549 422.473 283.205 422.33 282.861C418.29 277.905 409.409 271.888 403.965 268.078C403.326 267.42 402.795 266.666 402.389 265.843C398.619 269.351 394.598 272.578 390.356 275.498C391.663 276.355 392.908 277.303 394.081 278.335ZM327.412 304.377C328.043 303.976 328.501 303.604 328.587 303.088C330.163 291.399 321.396 225.16 321.539 222.553C321.539 222.4 321.57 222.249 321.629 222.108C321.688 221.967 321.775 221.839 321.885 221.732C321.994 221.626 322.124 221.542 322.266 221.486C322.409 221.43 322.561 221.403 322.714 221.407C324.175 221.407 321.596 221.407 358.097 256.36C360.503 258.623 378.896 276.214 381.962 277.389C386.174 277.074 402.017 264.439 404.596 260.457C399.61 250.372 339.159 167.402 318.244 154.71C316.64 153.736 313.89 152.217 310.881 150.613C309.841 151.594 308.72 152.485 307.529 153.277C300.882 159.58 291.629 167.43 284.609 173.332L290.081 184.191C290.164 184.334 290.208 184.497 290.208 184.663C290.208 184.829 290.164 184.992 290.081 185.136C245.645 248.882 246.304 248.166 246.018 248.166C243.169 262.896 241.398 277.815 240.717 292.803C240.717 296.842 240.717 296.499 240.546 296.212C240.374 295.926 240.546 296.413 240.546 296.413C247.479 303.976 316.096 311.024 327.412 304.377ZM169.035 209.46C182.014 211.265 196.682 208.572 199.519 208.457C201.095 200.82 204.236 193.591 208.744 187.227C208.813 187.135 208.914 187.071 209.028 187.05C209.141 187.029 209.259 187.051 209.356 187.113C209.454 187.174 209.525 187.271 209.555 187.382C209.585 187.494 209.572 187.612 209.518 187.715C207.856 191.095 202.298 205.678 200.923 209.231C201.352 210.606 187.973 265.929 191.755 273.378C195.135 280.111 214.818 288.591 221.923 291.026C223.328 275.077 225.624 259.218 228.799 243.525C227.825 235.274 229.086 186.225 229.458 168.089C229.469 167.879 229.539 167.675 229.661 167.503C229.783 167.33 229.951 167.196 230.146 167.115L243.009 161.7C243.068 154.892 243.498 148.092 244.299 141.33C212.182 146.888 174.765 165.253 171.642 165.282C167.116 165.282 133.481 139.497 126.519 138.465C123.424 137.978 110.131 149.581 108.584 152.79C122.164 171.757 146.029 196.682 157.088 205.306C160.651 207.688 164.763 209.118 169.035 209.46Z" fill="#002E62"/>
<path d="M284.924 100.59C284.96 100.402 285.033 100.223 285.138 100.062C285.243 99.9023 285.378 99.7645 285.536 99.6567C285.695 99.549 285.873 99.4735 286.06 99.4345C286.248 99.3955 286.441 99.3939 286.629 99.4296C286.817 99.4653 286.996 99.5378 287.157 99.6428C287.317 99.7478 287.455 99.8833 287.562 100.042C287.67 100.2 287.746 100.378 287.785 100.565C287.823 100.753 287.825 100.946 287.789 101.134C287.216 103.999 287.102 104.658 285.841 104.658C285.603 104.659 285.368 104.6 285.158 104.488C284.948 104.375 284.77 104.212 284.639 104.012C284.508 103.813 284.429 103.585 284.409 103.347C284.389 103.11 284.428 102.871 284.523 102.653C284.609 102.194 284.867 100.848 284.924 100.59ZM276.158 119.556C274.295 120.101 272.519 119.212 272.576 118.754C272.634 118.296 272.576 118.525 275.097 117.579C276.788 116.949 278.65 114.714 279.309 115.058C279.968 115.402 278.965 117.236 278.736 117.579C278.123 118.509 277.215 119.206 276.158 119.556ZM223.757 92.3387C227.51 108.068 230.26 121.418 230.719 124.083C231.023 125.242 231.082 126.452 230.891 127.636C229.372 130.873 209.747 137.262 207.254 136.001C204.762 134.741 198.287 120.158 190.752 105.117C186.136 105.264 181.517 104.928 176.971 104.114C172.185 103.236 167.526 101.763 163.105 99.7304C153.421 95.261 142.82 76.1228 141.388 66.4964C140.314 56.045 142.527 45.5189 147.72 36.3853C171.757 -5.30046 242.265 17.1325 236.535 63.4309C234.898 74.0248 230.49 83.9978 223.757 92.3387ZM206.28 126.461C206.28 126.919 206.796 126.862 209.145 126.461C213.95 125.857 218.603 124.371 222.869 122.077C224.874 120.989 225.418 120.76 225.218 120.272C225.017 119.785 224.588 119.957 221.493 120.817C221.207 120.817 212.325 123.682 209.775 124.57C206.481 126.06 206.28 126.06 206.28 126.461ZM206.796 79.8473C203.736 80.006 200.688 79.3745 197.943 78.0137C195.392 79.2496 192.632 79.9978 189.806 80.2198C194.62 89.1872 204.389 107.466 207.541 117.207L219.688 113.855C216.823 106.807 210.492 90.3046 206.853 79.8473H206.796ZM207.799 77.4694C209.937 77.1463 211.911 76.1306 213.417 74.578C214.923 73.0255 215.878 71.0219 216.136 68.8744C216.938 63.1444 213.271 56.7268 207.741 58.2452C204.275 59.1907 203.845 61.9411 204.447 65.4077C204.962 67.9289 206.825 74.2606 207.856 77.3548L207.799 77.4694ZM200.006 70.5934C199.7 68.7186 198.997 66.931 197.943 65.3504C197.442 64.4888 196.709 63.785 195.828 63.3191C194.946 62.8532 193.952 62.6437 192.958 62.7146C190.838 63.3449 189.921 67.3559 191.669 69.8771C193.348 72.1061 195.439 73.9927 197.828 75.4352C198.651 74.9527 199.305 74.2302 199.705 73.3646C200.104 72.4991 200.229 71.532 200.063 70.5934H200.006ZM226.335 34.1792C213.5 18.7369 189.348 12.6058 171.9 18.9661C162.422 22.2197 154.449 28.8075 149.467 37.5026C144.528 46.1938 142.415 56.2067 143.422 66.1526C144.74 75.0628 154.882 93.5707 163.792 97.6676C171.939 101.384 180.827 103.187 189.778 102.939C190.752 102.939 191.783 102.939 192.156 103.627C193.846 107.065 196.94 113.712 199.977 119.957C202.074 118.945 204.249 118.102 206.481 117.436C203.157 107.924 192.671 89.2445 187.686 80.1911C183.367 80.5612 179.025 79.8112 175.08 78.0137C174.014 77.4527 173.131 76.5993 172.533 75.5537C171.935 74.508 171.648 73.3136 171.705 72.1105C171.762 70.9074 172.161 69.7455 172.856 68.7612C173.55 67.777 174.51 67.0112 175.625 66.5537C180.065 64.3763 184.048 69.5906 186.368 73.9741C186.999 75.1201 187.715 76.4666 188.517 77.9851C190.834 77.8328 193.12 77.3604 195.307 76.5812C193.128 75.05 191.196 73.195 189.577 71.0804C188.67 69.7106 188.21 68.093 188.262 66.4508C188.313 64.8087 188.873 63.2229 189.864 61.9124C190.642 61.0085 191.723 60.4196 192.905 60.2561C194.086 60.0926 195.287 60.3657 196.281 61.0243C198.288 62.2572 199.896 64.0429 200.912 66.1672C201.929 68.2915 202.31 70.6641 202.011 73C201.7 74.3185 200.99 75.509 199.977 76.4093C201.856 77.1876 203.874 77.5775 205.908 77.5553C204.762 74.1746 202.899 68.0722 202.412 65.5796C202.107 64.1586 202.039 62.6967 202.212 61.2535C202.434 60.0145 203.008 58.866 203.867 57.946C204.726 57.0261 205.833 56.3738 207.054 56.0678C214.016 54.091 219.144 61.7978 218.141 68.989C217.858 71.566 216.752 73.9832 214.987 75.8823C213.222 77.7813 210.892 79.0612 208.343 79.5322C212.01 89.8462 217.74 106.492 220.605 113.597L226.908 111.964C222.868 91.6798 222.381 92.1668 222.954 91.909C229.464 83.6091 233.629 73.7156 235.016 63.259C235.691 58.0741 235.267 52.8051 233.772 47.7948C232.276 42.7846 229.742 38.1455 226.335 34.1792ZM186.569 78.157C184.563 74.5184 180.552 66.5537 176.656 68.5019C175.877 68.8159 175.198 69.3368 174.693 70.0083C174.188 70.6799 173.876 71.4765 173.791 72.3124C173.848 77.3548 181.698 78.2429 186.684 78.157H186.569ZM76.8968 90.7916C73.4441 88.7612 69.3665 88.068 65.4368 88.8434C61.1203 88.9207 56.997 90.6466 53.9124 93.6671C50.8279 96.6877 49.0161 100.774 48.8485 105.088C51.4442 103.582 54.4792 103.015 57.4435 103.484C64.6346 104.114 74.0318 108.01 72.7712 114.944C71.7398 120.674 64.1762 119.9 58.4462 118.353C52.7162 116.806 48.1609 113.998 46.9862 108.469C40.0243 113.54 38.3912 122.421 38.1047 131.102C38.1047 131.224 38.0565 131.34 37.9705 131.426C37.8845 131.512 37.7679 131.561 37.6463 131.561C37.5247 131.561 37.4081 131.512 37.3222 131.426C37.2362 131.34 37.1879 131.224 37.1879 131.102C36.9874 121.39 38.735 111.878 46.6711 106.349C46.5894 103.861 47.0134 101.383 47.9174 99.0642C48.8214 96.7453 50.1865 94.6341 51.9302 92.8583C53.6739 91.0824 55.7598 89.6789 58.0618 88.7327C60.3637 87.7866 62.8337 87.3174 65.3222 87.3536C69.2994 86.7729 73.3544 87.6041 76.7822 89.7029C77.8423 90.2186 77.3552 90.9922 76.8968 90.7916ZM50.768 111.334C54.0055 115.574 63.1735 117.78 67.4137 117.064C68.9894 116.806 70.2787 116.147 70.6224 114.514C71.6538 108.784 61.7696 105.661 55.8677 105.46C53.4644 105.276 51.0674 105.891 49.049 107.208C49.2658 108.706 49.8571 110.125 50.768 111.334ZM90.0185 57.2998C86.953 53.518 89.0157 46.9285 97.5821 46.8998C100.906 46.8998 102.51 50.2805 102.281 53.518C101.765 61.2248 93.084 60.9956 90.0185 57.2998ZM100.275 53.3747C100.275 51.4838 99.3871 49.0199 97.4102 49.0486C92.7975 49.0486 90.6775 51.1973 90.6775 53.5753C90.7921 58.9901 100.648 61.7978 100.275 53.3747ZM101.45 378.18C126.633 368.124 138.322 416.8 158.893 458.629C159.023 460.387 158.965 462.154 158.721 463.9C158.721 468.284 158.234 497.306 155.684 500.601C154.997 501.919 152.103 500.601 150.757 499.77C139.32 492.69 128.543 484.598 118.554 475.59C118.469 475.492 118.404 475.379 118.365 475.255C118.326 475.132 118.312 475.002 118.325 474.873C112.996 467.281 93.0268 427.744 88.1849 407.918C84.8042 393.88 88.1563 383.423 101.45 378.18ZM92.4538 414.565C105.936 412.838 118.971 408.58 130.873 402.017C124.169 389.325 115.889 374.856 102.223 380.3C87.0103 386.345 87.3254 398.865 92.4538 414.479V414.565ZM140.127 489.055C141.007 488.318 141.968 487.683 142.992 487.164C146.864 485.196 151.337 484.766 155.512 485.961C155.799 482.552 157.432 460.377 157.432 460.176C135.973 468.026 142.591 464.617 121.333 475.189C123.568 477.309 131.962 483.182 140.127 488.998V489.055ZM125.344 406.142C122.55 407.669 119.681 409.055 116.749 410.296C123.316 420.612 129.119 431.394 134.111 442.556C138.924 452.612 138.752 452.555 143.651 463.528C146.516 462.611 149.381 461.752 152.246 460.892C149.152 454.732 127.149 409.695 125.344 406.085V406.142ZM142.534 463.815C133.223 447.112 123.74 426.34 115.603 410.669C112.738 411.872 109.873 412.846 107.008 413.706C108.526 416.571 112.967 424.192 114.142 426.398C115.316 428.604 127.092 451.81 127.922 453.587C129.24 456.452 132.85 464.445 133.968 466.995C136.89 465.705 139.698 464.731 142.649 463.757L142.534 463.815ZM132.936 467.367C131.189 464.187 123.997 450.836 123.109 449.117C121.763 446.453 106.75 415.768 105.919 413.992C103.283 414.737 100.504 415.367 98.7281 415.711C103.971 430.036 119.07 457.626 124.513 471.235C129.47 468.914 130.587 468.341 133.051 467.31L132.936 467.367ZM131.189 402.847L126.06 405.712C136.395 423.312 145.397 441.661 152.991 460.606L157.289 459.288C140.643 423.819 139.87 419.178 131.303 402.79L131.189 402.847ZM119.385 473.727L123.711 471.665C119.041 462.497 104.429 438.975 97.754 415.912C96.1496 416.198 94.5739 416.456 93.0554 416.657C100.418 436.302 109.258 455.361 119.499 473.67L119.385 473.727ZM209.145 492.321C208.003 491.376 207.187 490.096 206.812 488.662C206.436 487.227 206.521 485.711 207.054 484.328C207.297 482.332 208.212 480.478 209.649 479.071C211.087 477.665 212.96 476.789 214.961 476.589C216.962 476.389 218.971 476.876 220.659 477.97C222.346 479.064 223.61 480.7 224.244 482.609C227.911 480.231 231.893 477.71 235.704 475.303C232.839 471.493 224.416 473.183 223.556 476.306C223.537 476.428 223.471 476.537 223.371 476.609C223.272 476.682 223.148 476.712 223.026 476.693C222.905 476.674 222.795 476.607 222.723 476.508C222.65 476.408 222.62 476.284 222.639 476.163C223.069 471.178 233.44 468.255 237.623 474.129C241.319 471.865 245.903 469.115 249.742 467.023C246.447 464.158 239.084 465.763 238.282 468.742C238.245 468.844 238.172 468.929 238.077 468.983C237.982 469.036 237.872 469.054 237.765 469.033C237.658 469.013 237.563 468.955 237.495 468.87C237.427 468.785 237.391 468.679 237.394 468.57C237.767 463.929 247.364 460.806 251.719 465.906C253.544 464.884 255.463 464.039 257.449 463.385C257.812 463.234 258.211 463.192 258.597 463.263C258.984 463.334 259.341 463.516 259.626 463.786C266.875 472.811 291.313 496.246 302.601 498.968C302.885 499.011 303.153 499.128 303.377 499.307C303.601 499.486 303.774 499.721 303.879 499.988C303.984 500.255 304.016 500.545 303.973 500.829C303.929 501.113 303.812 501.38 303.633 501.604C301.154 504.12 298.315 506.254 295.21 507.936C298.075 510.801 300.309 513.379 301.971 515.241C302.831 516.158 303.289 533.692 302.544 537.56C302.433 537.938 302.189 538.264 301.857 538.476C298.247 540.94 251.748 561.053 246.992 558.36C243.812 556.555 205.85 517.046 205.249 515.843C204.332 513.952 204.647 501.346 204.704 496.304C204.934 494.785 207.77 493.152 209.145 492.321ZM300.825 530.168V523.779C288.935 529.509 261.718 541.198 251.404 544.464C248.768 545.324 248.539 545.209 247.164 544.464C239.285 539.422 211.466 508.079 206.366 503.294V509.339C221.837 524.839 248.109 551.999 248.596 550.452C251.433 550.28 298.361 531.314 300.825 530.168ZM209.861 482.666C208.831 484.402 208.278 486.378 208.257 488.396C208.267 489.038 208.425 489.669 208.718 490.241C209.011 490.812 209.432 491.308 209.947 491.691C212.354 490.087 216.909 487.107 222.296 483.612C219.345 477.796 212.784 477.71 209.976 482.666H209.861ZM301.541 501.002C289.337 497.392 266.159 475.045 258.366 465.362C256.49 465.884 254.683 466.624 252.98 467.568C255.845 472.897 252.779 478.741 251.69 477.91C251.089 477.452 252.177 477.28 252.349 474.472C252.423 472.421 251.958 470.387 251.003 468.57C247.049 470.633 242.408 473.326 238.483 475.59C240.889 480.947 237.996 486.247 236.993 485.474C235.99 484.7 237.451 484.872 237.623 482.065C237.693 480.223 237.34 478.391 236.592 476.707C232.552 479.085 228.427 481.549 224.645 483.87C225.228 485.297 225.459 486.844 225.319 488.379C225.18 489.915 224.673 491.395 223.843 492.694C223.805 492.743 223.758 492.784 223.705 492.814C223.651 492.845 223.592 492.865 223.531 492.873C223.47 492.881 223.408 492.877 223.348 492.861C223.288 492.845 223.233 492.817 223.184 492.78C223.135 492.742 223.094 492.695 223.063 492.642C223.032 492.588 223.012 492.529 223.004 492.468C222.996 492.407 223 492.345 223.016 492.285C223.032 492.225 223.06 492.17 223.098 492.121C223.613 490.983 223.867 489.744 223.842 488.495C223.817 487.246 223.514 486.018 222.954 484.901C216.279 488.969 210.893 492.379 209.231 493.496C209.546 493.782 239.428 520.37 249.599 528.277C256.274 526.529 291.313 509.139 301.541 501.002ZM300.453 516.96C287.474 522.69 257.993 535.984 251.203 537.273C250.029 537.502 249.57 537.588 247.336 535.812C237.795 528.162 206.767 495.702 206.481 496.046C206.467 496.131 206.467 496.218 206.481 496.304V502.034C212.87 507.162 248.396 544.464 248.969 542.688C251.834 542.688 298.39 523.693 300.768 522.633C300.825 521.43 300.567 518.221 300.453 516.96ZM248.281 556.44C251.146 558.073 294.78 540.339 300.625 536.729C300.844 534.904 300.949 533.066 300.94 531.228C288.391 537.416 251.891 552.83 248.539 552.687C243.64 552.429 209.002 513.436 206.538 510.715C206.51 512.178 206.654 513.64 206.968 515.069C207.455 516.015 246.39 555.38 248.281 556.44ZM485.646 394.94C485.446 398.006 485.302 400.67 485.302 403.163C485.302 403.542 485.152 403.907 484.883 404.175C484.614 404.444 484.25 404.595 483.87 404.595C483.49 404.595 483.126 404.444 482.857 404.175C482.588 403.907 482.437 403.542 482.437 403.163C482.437 400.498 482.581 397.862 482.781 394.739C482.808 394.359 482.984 394.006 483.272 393.756C483.559 393.506 483.934 393.381 484.314 393.407C484.694 393.434 485.048 393.61 485.298 393.898C485.547 394.185 485.673 394.56 485.646 394.94ZM49.1063 337.497C49.2934 337.508 49.4764 337.556 49.6446 337.638C49.8127 337.721 49.9626 337.837 50.0855 337.978C50.2083 338.12 50.3015 338.284 50.3597 338.462C50.4179 338.64 50.4398 338.828 50.4242 339.015C50.2523 341.651 50.0804 344.487 50.0804 347.238C50.0804 347.618 49.9295 347.982 49.6609 348.251C49.3922 348.519 49.0278 348.67 48.6479 348.67C48.268 348.67 47.9037 348.519 47.635 348.251C47.3664 347.982 47.2154 347.618 47.2154 347.238C47.2154 344.373 47.3873 341.508 47.5879 338.815C47.5987 338.628 47.6469 338.445 47.7295 338.276C47.8122 338.108 47.9277 337.958 48.0692 337.836C48.2107 337.713 48.3754 337.619 48.5535 337.561C48.7316 337.503 48.9196 337.481 49.1063 337.497ZM493.067 387.806C492.687 387.806 492.322 387.655 492.054 387.387C491.785 387.118 491.634 386.754 491.634 386.374C491.634 385.994 491.785 385.629 492.054 385.361C492.322 385.092 492.687 384.941 493.067 384.941C496.533 384.941 499.427 385.199 502.292 385.142C502.675 385.142 503.042 385.292 503.315 385.559C503.588 385.827 503.746 386.192 503.753 386.574C503.753 386.954 503.602 387.318 503.334 387.587C503.065 387.856 502.701 388.007 502.321 388.007C499.37 388.064 496.132 387.949 493.067 387.806ZM57.9878 329.016C61.4258 329.016 64.3195 329.217 67.2131 329.246C67.593 329.246 67.9574 329.396 68.226 329.665C68.4947 329.934 68.6456 330.298 68.6456 330.678C68.6456 331.058 68.4947 331.422 68.226 331.691C67.9574 331.96 67.593 332.111 67.2131 332.111C64.1189 332.111 60.9101 332.111 57.8159 331.881C57.436 331.859 57.0807 331.686 56.8282 331.401C56.5757 331.116 56.4466 330.743 56.4694 330.363C56.4922 329.983 56.6649 329.628 56.9497 329.375C57.2345 329.123 57.6079 328.994 57.9878 329.016ZM486.42 370.1C486.248 372.736 486.076 375.573 486.076 378.323C486.069 378.701 485.915 379.061 485.648 379.328C485.381 379.595 485.021 379.748 484.644 379.755C484.264 379.755 483.899 379.605 483.631 379.336C483.362 379.067 483.211 378.703 483.211 378.323C483.211 375.458 483.383 372.593 483.555 369.9C483.581 369.52 483.758 369.166 484.045 368.916C484.333 368.666 484.708 368.541 485.088 368.568C485.468 368.594 485.821 368.771 486.071 369.058C486.321 369.346 486.446 369.72 486.42 370.1ZM47.989 322.398C47.989 319.533 48.1609 316.668 48.3614 313.975C48.388 313.595 48.5644 313.241 48.8519 312.992C49.1393 312.742 49.5143 312.616 49.8942 312.643C50.2741 312.669 50.6279 312.846 50.8777 313.133C51.1276 313.421 51.253 313.796 51.2264 314.176C51.0545 316.811 50.8826 319.648 50.8826 322.398C50.8826 322.778 50.7317 323.142 50.463 323.411C50.1944 323.68 49.83 323.831 49.4501 323.831C49.0675 323.831 48.7001 323.681 48.4269 323.413C48.1537 323.145 47.9965 322.781 47.989 322.398ZM465.276 387.434C465.088 387.426 464.903 387.382 464.732 387.303C464.561 387.224 464.407 387.112 464.28 386.974C464.152 386.836 464.053 386.673 463.988 386.497C463.923 386.32 463.893 386.132 463.901 385.944C463.93 385.569 464.1 385.219 464.376 384.964C464.652 384.709 465.015 384.568 465.391 384.569C468.857 384.712 471.751 384.827 474.645 384.769C475.025 384.769 475.389 384.92 475.658 385.189C475.926 385.457 476.077 385.822 476.077 386.202C476.077 386.582 475.926 386.946 475.658 387.215C475.389 387.483 475.025 387.634 474.645 387.634C471.579 387.692 468.37 387.577 465.276 387.434ZM30.1973 328.644C33.0623 328.787 36.2425 328.873 39.4226 328.873C39.6117 328.865 39.8005 328.896 39.9774 328.963C40.1544 329.03 40.3161 329.132 40.4526 329.263C40.5891 329.395 40.6976 329.552 40.7717 329.726C40.8458 329.9 40.8839 330.088 40.8838 330.277C40.8839 330.66 40.7338 331.027 40.466 331.3C40.1981 331.573 39.8338 331.731 39.4513 331.738C36.1852 331.738 33.5494 331.738 30.0827 331.509C29.8946 331.502 29.7097 331.457 29.5387 331.378C29.3677 331.299 29.2139 331.187 29.0862 331.049C28.9585 330.911 28.8593 330.749 28.7943 330.572C28.7293 330.395 28.6998 330.207 28.7075 330.019C28.7428 329.647 28.9144 329.3 29.1893 329.046C29.4642 328.793 29.8232 328.649 30.1973 328.644ZM531.114 302.544C530.741 302.83 449.948 290.855 446.482 288.734C446.29 288.594 446.136 288.408 446.036 288.192C445.936 287.977 445.892 287.74 445.909 287.502C445.909 283.807 450.751 249.112 453.071 240.459C453.358 239.399 453.644 238.339 454.303 237.967C458.687 235.331 535.927 249.885 540.54 252.865C540.665 252.939 540.773 253.038 540.857 253.156C540.941 253.275 540.999 253.41 541.027 253.552C542.001 257.019 533.606 300.825 531.114 302.544ZM539.279 254.24C533.778 251.747 463.672 238.912 455.65 239.915C453.702 244.929 448.487 281.658 448.143 287.044C452.126 288.219 530.025 301.598 530.312 301.656C530.598 301.713 530.627 302.057 531.228 300.252C533.75 292.688 539.422 260.715 539.279 254.24Z" fill="#002E62"/>
<path d="M440.179 291.284C440.023 290.995 439.953 290.667 439.978 290.339C439.978 285.783 446.51 235.216 448.831 231.177C449.013 230.879 449.27 230.634 449.577 230.468C449.884 230.302 450.23 230.22 450.579 230.231C460.176 229.056 541.141 244.871 546.47 248.567C547.215 249.083 547.101 250.372 547.015 251.747C546.556 259.282 538.42 308.847 535.555 308.56C535.239 308.56 535.354 308.331 536.099 309.85C540.568 319.046 549.049 348.498 548.877 354.429C548.877 356.921 548.304 360.159 545.84 359.987C528.163 357.81 441.497 344.058 416.571 338.929C415.597 338.729 414.967 337.841 414.995 336.379C415.289 333.945 416.027 331.585 417.173 329.417C420.668 322.857 435.165 296.871 440.179 291.284ZM535.383 307.672C537.617 304.807 545.84 255.443 545.21 249.971C538.907 246.705 459.03 231.263 450.665 232.523C448.373 238.826 442.442 284.351 442.07 289.823C452.212 293.318 522.433 304.664 535.383 307.672ZM534.122 308.532C531.715 307.93 449.748 294.207 442.242 292.23C438.145 296.04 419.637 328.959 418.433 331.767C434.878 334.632 532.432 350.934 546.785 353.111C546.585 344.43 537.675 314.09 534.122 308.532Z" fill="#002E62"/>
<path d="M523.35 338.242C520.857 337.869 467.969 331.509 448.86 326.324C448.742 326.293 448.641 326.217 448.579 326.112C448.517 326.008 448.5 325.883 448.53 325.765C448.561 325.647 448.636 325.546 448.741 325.484C448.846 325.423 448.971 325.405 449.089 325.435C452.842 326.209 498.625 332.311 523.407 337.354C523.475 337.341 523.546 337.345 523.613 337.364C523.68 337.383 523.741 337.417 523.793 337.463C523.845 337.509 523.886 337.567 523.912 337.631C523.939 337.696 523.95 337.765 523.946 337.834C523.941 337.904 523.921 337.971 523.886 338.032C523.852 338.092 523.804 338.144 523.747 338.183C523.689 338.223 523.624 338.248 523.555 338.258C523.486 338.269 523.416 338.263 523.35 338.242ZM484.701 138.895C485.771 141.312 486.671 143.801 487.394 146.344C487.437 146.752 487.324 147.161 487.079 147.49C484.185 151.845 454.532 185.28 446.797 189.978C445.737 190.637 444.476 191.096 443.703 190.15C438.083 183.158 430.75 177.739 422.416 174.421C415.632 172.021 408.521 170.678 401.329 170.439C395.599 169.923 394.597 169.35 392.39 165.597C389.788 160.658 386.336 156.216 382.191 152.475C376.907 147.855 371.041 143.944 364.743 140.843C364.46 140.683 364.238 140.432 364.114 140.131C363.989 139.83 363.969 139.496 364.056 139.182C365.024 136.717 366.305 134.387 367.866 132.248C366.835 131.905 365.689 131.589 365.689 130.558C365.689 127.693 390.671 91.5368 397.605 84.7181C398.321 84.0018 399.352 83.0564 400.298 83.1137C414.623 83.9159 428.575 97.4387 436.655 109.242C445.909 108.899 451.897 108.068 462.44 112.509C469.883 115.668 476.593 120.33 482.151 126.203C483.01 127.091 488.855 133.28 488.941 133.767C489.027 134.254 488.855 134.254 484.701 138.895ZM370.101 138.093C382.048 140.127 389.669 150.069 395.284 160.87C397.777 165.683 397.548 165.912 400.183 165.855C404.792 165.594 409.416 165.766 413.993 166.371C417.35 166.872 420.65 167.697 423.848 168.834C431.125 171.413 439.462 179.664 443.903 185.795C443.998 185.921 444.117 186.026 444.255 186.103C444.393 186.179 444.545 186.226 444.702 186.239C444.859 186.253 445.017 186.233 445.166 186.181C445.314 186.129 445.45 186.047 445.565 185.939C454.876 176.341 471.35 159.495 479.63 149.811C480.031 149.381 479.343 148.751 478.942 149.209C473.585 154.939 459.747 168.663 444.906 183.589C439.892 177.2 432.157 169.465 424.507 166.772C420.336 165.284 415.995 164.321 411.586 163.907C407.457 163.593 403.31 163.593 399.181 163.907C397.49 161.958 389.124 139.841 370.158 137.377C370.103 137.418 370.057 137.47 370.025 137.531C369.992 137.592 369.974 137.659 369.971 137.728C369.969 137.797 369.981 137.865 370.009 137.929C370.036 137.992 370.077 138.048 370.129 138.093H370.101ZM400.327 85.4343C394.597 89.4453 371.275 123.969 368.239 130.014C373.508 131.683 378.596 133.882 383.423 136.575C387.995 138.866 391.997 142.149 395.139 146.183C398.282 150.218 400.484 154.902 401.587 159.896C411.872 143.164 426.226 124.742 435.767 111.191C435.194 110.818 419.092 86.5517 400.327 85.4343ZM461.809 114.084C451.352 109.873 445.565 110.847 436.913 111.219C428.318 125.888 412.875 146.573 402.704 160.125C412.092 157.904 421.97 159.262 430.409 163.935C435.48 166.8 441.669 173.676 445.479 177.945C450.98 173.533 482.724 139.726 487.824 133.996C479.974 125.115 472.725 118.439 461.809 113.97V114.084ZM514.239 186.941C514.947 186.444 515.784 186.164 516.649 186.133C517.513 186.103 518.368 186.324 519.109 186.769C519.649 187.01 520.137 187.355 520.543 187.784C520.95 188.213 521.268 188.718 521.48 189.27C521.691 189.822 521.792 190.41 521.776 191.001C521.76 191.592 521.628 192.174 521.387 192.714C521.146 193.254 520.802 193.741 520.372 194.148C519.943 194.555 519.438 194.873 518.886 195.084C518.334 195.296 517.746 195.397 517.155 195.381C516.564 195.365 515.982 195.233 515.442 194.992C514.58 194.803 513.795 194.357 513.192 193.712C512.589 193.067 512.196 192.255 512.066 191.381C511.935 190.508 512.073 189.616 512.461 188.823C512.849 188.03 513.469 187.374 514.239 186.941ZM516.13 192.671C518.135 193.302 519.339 192.671 519.826 191.697C520.742 189.663 519.596 186.54 516.617 187.457C514.525 188.231 512.835 191.754 516.13 192.815V192.671ZM368.554 55.8389C367.723 57.5292 363.855 56.8989 362.165 56.3546C361.277 56.0681 360.704 55.7529 360.618 54.8934C360.36 52.7447 360.073 34.1222 361.047 32.3172C361.148 32.128 361.302 31.9726 361.491 31.8707C361.679 31.7688 361.894 31.7248 362.107 31.7442C365.164 31.7357 368.205 32.1799 371.132 33.0621C372.307 33.7784 369.585 53.948 368.554 55.8389ZM370.531 33.7497C367.884 33.3711 365.207 33.2464 362.537 33.3773C362.365 35.4974 362.824 53.862 362.852 54.1485C364.063 54.5823 365.355 54.7389 366.634 54.6069C366.835 53.948 367.178 52.1717 367.608 49.937C368.871 44.5973 369.846 39.1938 370.531 33.7497ZM517.018 162.761C516.743 162.901 516.439 162.975 516.13 162.975C515.821 162.975 515.517 162.901 515.242 162.761C514.135 162.078 513.257 161.08 512.72 159.896C512.648 159.706 512.625 159.501 512.655 159.3C512.685 159.099 512.767 158.91 512.892 158.75C514.268 157.117 529.28 139.726 531.114 140.815C533.365 142.272 535.501 143.9 537.503 145.685C537.583 145.757 537.648 145.846 537.692 145.944C537.737 146.043 537.76 146.15 537.761 146.258C537.818 147.748 521.144 161.099 517.018 162.761ZM530.77 141.56C528.679 143.078 521.631 151.788 515.098 159.495C515.379 159.937 515.727 160.333 516.13 160.669C522.998 156.274 529.555 151.411 535.755 146.115C534.201 144.483 532.535 142.961 530.77 141.56ZM485.761 78.3578C485.131 67.2416 478.656 62.0846 471.894 60.7667C473.814 67.8146 473.499 76.9826 466.537 78.1572C463.213 78.7016 461.58 76.9826 459.174 74.9771C448.888 66.3821 457.197 57.7871 468.8 58.3887C464.474 46.5276 454.475 36.8726 441.21 36.5574C441.089 36.5574 440.972 36.5091 440.886 36.4232C440.8 36.3372 440.752 36.2206 440.752 36.099C440.752 35.9775 440.8 35.8609 440.886 35.7749C440.972 35.6889 441.089 35.6406 441.21 35.6406C455.535 35.3541 466.795 45.6681 471.235 58.5606C478.885 59.8785 486.477 65.6085 486.678 78.1859C486.689 78.2461 486.688 78.3079 486.676 78.3678C486.663 78.4278 486.639 78.4846 486.604 78.5352C486.57 78.5857 486.525 78.629 486.474 78.6624C486.423 78.6959 486.365 78.7189 486.305 78.7302C486.245 78.7415 486.183 78.7408 486.123 78.7282C486.063 78.7156 486.006 78.6913 485.956 78.6567C485.905 78.6222 485.862 78.578 485.829 78.5267C485.795 78.4754 485.772 78.418 485.761 78.3578ZM469.459 60.4229C465.19 60.1364 458.83 61.4543 457.082 65.322C456.079 67.5281 457.082 70.2498 460.635 73.2294C461.599 74.1957 462.7 75.0161 463.901 75.6647C468.198 77.4983 472.954 72.198 469.459 60.4229ZM461.265 465.62C464.033 464.878 466.921 464.698 469.76 465.09C472.599 465.481 475.331 466.436 477.794 467.899C480.258 469.362 482.405 471.303 484.108 473.608C485.81 475.913 487.035 478.535 487.709 481.32C488.982 487.106 487.904 493.161 484.712 498.153C481.521 503.144 476.477 506.663 470.691 507.936C464.905 509.209 458.85 508.131 453.858 504.939C448.867 501.748 445.348 496.704 444.075 490.918C443.531 488.127 443.546 485.256 444.117 482.471C444.688 479.686 445.804 477.041 447.402 474.689C449 472.338 451.048 470.325 453.427 468.769C455.806 467.212 458.47 466.142 461.265 465.62ZM452.412 488.97C453.562 493.554 456.314 497.577 460.171 500.309C464.028 503.041 468.735 504.304 473.441 503.868C477.762 502.179 481.349 499.022 483.57 494.95C485.792 490.878 486.507 486.153 485.589 481.607C484.517 476.91 481.79 472.757 477.908 469.906C474.026 467.055 469.247 465.696 464.445 466.078C460.082 467.881 456.495 471.165 454.315 475.352C452.135 479.539 451.501 484.361 452.527 488.97H452.412Z" fill="#005089"/>
<path d="M423.103 473.785C425.597 472.924 428.27 472.717 430.867 473.183C431.944 470.715 433.269 468.363 434.821 466.164C432.959 464.473 427.859 459.775 429.091 457.569C433.475 452.324 438.681 447.825 444.505 444.246C446.937 442.884 449.615 442.017 452.384 441.697C454.217 441.954 458.572 449.088 459.546 450.693C460.176 450.693 462.411 449.976 462.583 449.89C462.583 447.828 463.185 440.379 465.047 439.519C467.129 438.753 469.292 438.224 471.493 437.943C473.527 437.628 491.835 440.98 493.181 443.444C494.069 445.106 492.007 451.38 491.405 453.128C492.95 453.978 494.434 454.936 495.846 455.993C498.711 458.027 497.937 457.941 498.453 457.712C499.076 457.414 499.744 457.221 500.43 457.139C502.718 455.797 505.402 455.291 508.022 455.706C510.658 456.566 516.875 470.719 517.877 474.358C518.206 475.275 518.294 476.261 518.135 477.223C517.448 479.114 512.864 480.632 510.944 481.234C511.474 484.92 511.474 488.663 510.944 492.35C513.465 493.037 518.708 494.584 518.422 497.163C518.135 499.742 511.431 516.76 508.652 518.106C507.13 518.958 505.446 519.481 503.71 519.644C501.973 519.807 500.221 519.605 498.567 519.052C497.636 518.587 496.736 518.06 495.874 517.476C494.728 518.335 493.525 519.109 492.293 519.854C493.181 522.06 495.158 526.988 494.528 529.222C494.213 530.397 493.267 530.769 491.949 531.256C488.311 532.574 468.714 537.273 465.734 536.757C464.617 536.585 464.015 535.411 463.672 534.293C463.035 531.75 462.661 529.149 462.554 526.529C461.083 526.384 459.62 526.164 458.171 525.87C457.286 527.428 456.154 528.831 454.819 530.025C453.358 531.056 452.126 530.54 450.464 529.48C449.662 530.512 448.459 531.944 447.169 532.087C443.932 532.46 430.552 519.854 429.177 517.275C428.031 515.127 432.214 511.287 434.076 509.597C432.062 506.566 430.48 503.268 429.378 499.799C427.311 500.11 425.22 500.225 423.132 500.143C422.186 500.143 421.098 499.799 420.697 498.911C418.949 494.928 419.465 479.83 420.697 475.991C420.869 474.873 422.158 474.128 423.103 473.785ZM422.416 476.42C421.442 480.145 421.126 494.212 422.559 497.851C425.036 498.095 427.535 497.979 429.979 497.507C430.24 497.462 430.508 497.517 430.731 497.66C430.954 497.803 431.115 498.024 431.183 498.28C432.324 502.154 434.095 505.813 436.426 509.11C436.592 509.328 436.666 509.603 436.634 509.875C436.602 510.148 436.466 510.397 436.254 510.571C434.243 512.164 432.536 514.105 431.211 516.301C432.644 518.651 443.846 528.907 446.94 529.767C447.398 529.767 448.659 528.048 448.974 527.589C450.033 525.999 450.989 524.344 451.839 522.633C451.963 522.383 452.176 522.189 452.436 522.089C452.695 521.988 452.983 521.988 453.243 522.088C461.552 525.211 464.703 523.378 464.703 525.441C464.699 528.529 465.203 531.597 466.193 534.523C472.926 533.791 479.556 532.311 485.961 530.11C485.652 527.052 484.798 524.073 483.44 521.315C482.581 519.395 486.019 519.94 492.436 513.408C492.643 513.216 492.914 513.11 493.195 513.11C493.477 513.11 493.748 513.216 493.955 513.408C496.82 515.757 500.544 518.049 501.289 517.676C502.75 516.96 509.483 501.69 509.884 498.596C507.846 497.176 505.533 496.199 503.094 495.73C502.834 495.657 502.609 495.492 502.462 495.265C502.314 495.039 502.254 494.766 502.292 494.499C502.994 490.441 502.994 486.294 502.292 482.236C502.248 481.987 502.301 481.729 502.439 481.517C502.577 481.304 502.791 481.152 503.037 481.09C505.197 480.524 507.276 479.687 509.225 478.598C509.855 478.139 509.798 478.168 509.741 477.681C507.886 470.993 504.913 464.667 500.945 458.973C499.398 458.543 495.215 461.608 493.783 462.697C493.633 462.842 493.433 462.924 493.224 462.924C493.016 462.924 492.815 462.842 492.665 462.697C491.349 461.332 489.932 460.068 488.425 458.915C484.07 455.62 482.896 456.05 483.268 454.904C484.585 452.03 485.325 448.924 485.446 445.765C485.002 445.396 484.498 445.105 483.956 444.905C481.281 443.848 478.533 442.986 475.733 442.327C472.34 441.381 468.852 440.814 465.333 440.637C464.732 440.894 464.187 443.502 464.044 444.304C462.984 450.034 463.7 451.208 462.869 451.294C454.704 452.097 453.043 454.36 452.47 453.357C450.881 450.579 449.029 447.96 446.94 445.536C446.338 444.934 446.367 444.648 444.562 445.679C439.17 449.203 434.34 453.52 430.237 458.485C429.807 459.23 433.532 463.184 436.254 465.505C437.199 466.336 435.853 466.708 433.389 471.407C430.925 476.105 431.498 477.423 430.18 477.137C427.639 476.528 425.025 476.287 422.416 476.42ZM24.7823 237.021C30.7881 234.568 37.0861 232.902 43.5194 232.065C48.218 231.32 53.7474 230.575 58.4174 229.973C53.9193 223.613 40.5971 207.511 38.3624 203.586C37.7321 202.526 38.9354 201.037 39.8235 200.148C44.8086 194.82 54.4351 192.814 61.8268 191.668C66.067 190.98 83.7726 188.803 86.7809 190.236C90.3908 191.955 117.093 232.065 117.895 238.167C117.895 239.198 117.551 239.599 116.548 239.972C112.337 241.519 93.3418 243.926 89.1016 244.928C94.8316 254.956 120.301 288.849 122.794 293.633C123.396 294.837 123.023 295.553 122.307 295.782C119.729 296.806 117.075 297.629 114.371 298.246C113.339 298.561 111.076 297.157 107.781 295.152C92.9979 286.27 29.5668 244.384 24.6963 238.969C24.5619 238.842 24.4564 238.688 24.3869 238.516C24.3175 238.345 24.2858 238.16 24.294 237.975C24.3021 237.791 24.3499 237.61 24.4342 237.445C24.5185 237.28 24.6372 237.136 24.7823 237.021ZM86.3511 271.401C110.704 287.474 118.926 292.172 119.213 292.373C115.288 286.385 90.9065 252.979 86.7236 244.986C86.6508 244.831 86.6133 244.663 86.614 244.492C86.6148 244.321 86.6536 244.153 86.7278 243.999C86.8019 243.845 86.9095 243.71 87.0426 243.603C87.1757 243.496 87.331 243.42 87.4971 243.381C90.3621 242.35 111.219 240.115 116.147 238.368C115.517 233.039 89.5027 192.757 86.3511 191.152C83.1996 189.548 52.6301 193.186 46.9001 197.283C49.9083 203.157 66.5254 223.727 69.2184 228.512C69.7628 229.486 69.9347 230.431 68.8746 230.689C67.8146 230.947 40.8836 234.099 35.0103 236.018C42.1729 242.006 78.3291 266.015 86.3511 271.286V271.401ZM270.141 96.2349C270.141 96.4927 269.969 96.8079 269.539 98.4696C269.426 98.83 269.178 99.1328 268.847 99.3145C268.516 99.4961 268.128 99.5424 267.763 99.4437C267.398 99.3373 267.091 99.0904 266.908 98.7573C266.725 98.4242 266.682 98.0321 266.789 97.6674C267.075 96.55 267.333 95.6046 267.505 95.1462C267.672 94.8316 267.95 94.5904 268.285 94.4698C268.62 94.3491 268.988 94.3576 269.317 94.4935C269.647 94.6295 269.913 94.8832 270.066 95.2051C270.218 95.5271 270.245 95.8942 270.141 96.2349Z" fill="#005089"/>
</svg>
